<svg xmlns="http://www.w3.org/2000/svg" style="display: none;">
    <symbol viewBox="0 0 24 24" fill="none" id="knob-0">
        <path d="M11.2065 4.91928C11.0224 4.73566 10.9077 4.49386 10.8819 4.23511C10.8561 3.97636 10.9208 3.71668 11.0651 3.50032C11.2093 3.28397 11.4242 3.12435 11.6729 3.04866C11.9217 2.97297 12.189 2.9859 12.4293 3.08525C12.6696 3.1846 12.868 3.36422 12.9907 3.59348C13.1134 3.82275 13.1528 4.08747 13.1022 4.34252C13.0515 4.59758 12.914 4.82717 12.713 4.99216C12.512 5.15716 12.26 5.24734 12 5.24734C11.7025 5.24739 11.4171 5.12941 11.2065 4.91928ZM20 6.97463C20 7.1966 19.9342 7.41358 19.8109 7.59814C19.6875 7.7827 19.5123 7.92655 19.3072 8.01149C19.1021 8.09644 18.8765 8.11866 18.6588 8.07536C18.4411 8.03205 18.2411 7.92517 18.0841 7.76821C17.9272 7.61126 17.8203 7.41128 17.777 7.19358C17.7337 6.97587 17.7559 6.75022 17.8408 6.54515C17.9258 6.34007 18.0696 6.16479 18.2542 6.04148C18.4388 5.91816 18.6557 5.85233 18.8777 5.85233C19.1753 5.85266 19.4605 5.971 19.6709 6.18141C19.8813 6.39181 19.9997 6.67708 20 6.97463ZM4 6.97463C4 6.75266 4.06582 6.53568 4.18914 6.35112C4.31246 6.16656 4.48774 6.02271 4.69281 5.93776C4.89788 5.85282 5.12354 5.8306 5.34124 5.8739C5.55895 5.9172 5.75892 6.02409 5.91588 6.18105C6.07283 6.338 6.17972 6.53798 6.22302 6.75568C6.26633 6.97338 6.2441 7.19904 6.15916 7.40411C6.07422 7.60918 5.93037 7.78446 5.74581 7.90778C5.56125 8.0311 5.34426 8.09692 5.12229 8.09692C4.82474 8.0966 4.53947 7.97825 4.32907 7.76785C4.11867 7.55745 4.00032 7.27218 4 6.97463Z" fill="black"/>
        <path d="M6.01804 14.062C6.05935 15.2451 6.45057 16.3894 7.14223 17.3502C7.83388 18.311 8.79491 19.0451 9.90377 19.4596C11.0126 19.8742 12.2195 19.9507 13.3719 19.6794C14.5242 19.408 15.5702 18.8011 16.3775 17.9353C17.1849 17.0695 17.7174 15.9837 17.9077 14.8153C18.098 13.6468 17.9375 12.4482 17.4466 11.3709C16.9557 10.2937 16.1563 9.38623 15.1497 8.76328C14.143 8.14033 12.9742 7.82988 11.7911 7.8712C10.2052 7.92839 8.70674 8.61231 7.62447 9.77291C6.54219 10.9335 5.96447 12.476 6.01804 14.062ZM16.4864 13.6965C16.5126 14.4031 16.3714 15.106 16.0744 15.7478C15.7774 16.3895 15.3331 16.9521 14.7775 17.3895C14.2219 17.827 13.5708 18.127 12.8772 18.2652C12.1837 18.4033 11.4674 18.3757 10.7865 18.1845C10.1057 17.9933 9.4797 17.6439 8.95949 17.1649C8.43927 16.6859 8.03957 16.0908 7.79296 15.4281C7.54634 14.7653 7.45979 14.0536 7.54034 13.3511C7.6209 12.6485 7.86629 11.975 8.25651 11.3852L8.39434 11.5137L10.7159 13.6786C10.7877 13.7461 10.872 13.7988 10.9642 13.8336C11.0564 13.8684 11.1545 13.8846 11.253 13.8814C11.3514 13.8782 11.4483 13.8555 11.538 13.8148C11.6276 13.774 11.7084 13.716 11.7756 13.6439C11.8428 13.5719 11.8951 13.4873 11.9295 13.3949C11.9639 13.3026 11.9797 13.2044 11.9761 13.106C11.9724 13.0075 11.9494 12.9108 11.9082 12.8213C11.8671 12.7318 11.8087 12.6513 11.7363 12.5844L9.41477 10.4195L9.27694 10.291C9.93049 9.78909 10.7097 9.47708 11.5291 9.38925C12.3484 9.30141 13.1761 9.44115 13.9212 9.7931C14.6662 10.145 15.2999 10.6956 15.7524 11.3842C16.205 12.0728 16.459 12.8729 16.4864 13.6965Z" fill="black"/>
    </symbol>
    <symbol viewBox="0 0 24 24" fill="none" id="knob-1">
        <path d="M11.2065 4.91928C11.0224 4.73566 10.9077 4.49386 10.8819 4.23511C10.8561 3.97636 10.9208 3.71668 11.0651 3.50032C11.2093 3.28397 11.4242 3.12435 11.6729 3.04866C11.9217 2.97297 12.189 2.9859 12.4293 3.08525C12.6696 3.1846 12.868 3.36422 12.9907 3.59348C13.1134 3.82275 13.1528 4.08747 13.1022 4.34252C13.0515 4.59758 12.914 4.82717 12.713 4.99216C12.512 5.15716 12.26 5.24734 12 5.24734C11.7025 5.24739 11.4171 5.12941 11.2065 4.91928ZM20 6.97463C20 7.1966 19.9342 7.41358 19.8109 7.59814C19.6875 7.7827 19.5123 7.92655 19.3072 8.01149C19.1021 8.09644 18.8765 8.11866 18.6588 8.07536C18.4411 8.03205 18.2411 7.92517 18.0841 7.76821C17.9272 7.61126 17.8203 7.41128 17.777 7.19358C17.7337 6.97587 17.7559 6.75022 17.8408 6.54515C17.9258 6.34007 18.0696 6.16479 18.2542 6.04148C18.4388 5.91816 18.6557 5.85233 18.8777 5.85233C19.1753 5.85266 19.4605 5.971 19.6709 6.18141C19.8813 6.39181 19.9997 6.67708 20 6.97463ZM4 6.97463C4 6.75266 4.06582 6.53568 4.18914 6.35112C4.31246 6.16656 4.48774 6.02271 4.69281 5.93776C4.89788 5.85282 5.12354 5.8306 5.34124 5.8739C5.55895 5.9172 5.75892 6.02409 5.91588 6.18105C6.07283 6.338 6.17972 6.53798 6.22302 6.75568C6.26633 6.97338 6.2441 7.19904 6.15916 7.40411C6.07422 7.60918 5.93037 7.78446 5.74581 7.90778C5.56125 8.0311 5.34426 8.09692 5.12229 8.09692C4.82474 8.0966 4.53947 7.97825 4.32907 7.76785C4.11867 7.55745 4.00032 7.27218 4 6.97463Z" fill="black"/>
        <path d="M7.76754 9.62083C6.93044 10.4579 6.36037 11.5245 6.12941 12.6855C5.89846 13.8466 6.01699 15.0501 6.47003 16.1438C6.92306 17.2376 7.69025 18.1724 8.67457 18.8301C9.65889 19.4878 10.8161 19.8388 12 19.8388C13.1838 19.8388 14.3411 19.4878 15.3254 18.8301C16.3097 18.1724 17.0769 17.2376 17.5299 16.1438C17.983 15.0501 18.1015 13.8466 17.8705 12.6855C17.6396 11.5245 17.0695 10.4579 16.2324 9.62083C15.109 8.5 13.5869 7.87053 12 7.87053C10.4131 7.87053 8.89094 8.5 7.76754 9.62083ZM15.1743 17.0276C14.6753 17.5287 14.065 17.9048 13.3931 18.1253C12.7212 18.3458 12.0067 18.4044 11.3079 18.2964C10.609 18.1884 9.94553 17.9169 9.37151 17.5039C8.79749 17.0909 8.32916 16.5481 8.00468 15.9198C7.6802 15.2915 7.50874 14.5954 7.50427 13.8883C7.4998 13.1811 7.66245 12.4829 7.97898 11.8506C8.2955 11.2182 8.75693 10.6696 9.32568 10.2493C9.89444 9.8291 10.5544 9.54919 11.2519 9.43238L11.2519 9.62083L11.2519 12.7952C11.2514 12.8937 11.2705 12.9913 11.3079 13.0824C11.3453 13.1736 11.4003 13.2564 11.4698 13.3262C11.5393 13.396 11.622 13.4514 11.7129 13.4892C11.8039 13.527 11.9014 13.5465 12 13.5465C12.0985 13.5465 12.196 13.527 12.287 13.4892C12.378 13.4514 12.4606 13.3961 12.5301 13.3262C12.5996 13.2564 12.6546 13.1736 12.692 13.0824C12.7295 12.9913 12.7485 12.8937 12.7481 12.7952V9.62085L12.7481 9.4324C13.5608 9.56809 14.3205 9.92521 14.9435 10.4645C15.5665 11.0038 16.0288 11.7045 16.2795 12.4894C16.5303 13.2744 16.5598 14.1132 16.3648 14.9139C16.1698 15.7145 15.7579 16.4459 15.1743 17.0276Z" fill="black"/>
    </symbol>
    <symbol viewBox="0 0 24 24" fill="none" id="knob-2">
        <path d="M11.2065 4.91928C11.0224 4.73566 10.9077 4.49386 10.8819 4.23511C10.8561 3.97636 10.9208 3.71668 11.0651 3.50032C11.2093 3.28397 11.4242 3.12435 11.6729 3.04866C11.9217 2.97297 12.189 2.9859 12.4293 3.08525C12.6696 3.1846 12.868 3.36422 12.9907 3.59348C13.1134 3.82275 13.1528 4.08747 13.1022 4.34252C13.0515 4.59758 12.914 4.82717 12.713 4.99216C12.512 5.15716 12.26 5.24734 12 5.24734C11.7025 5.24739 11.4171 5.12941 11.2065 4.91928ZM20 6.97463C20 7.1966 19.9342 7.41358 19.8109 7.59814C19.6875 7.7827 19.5123 7.92655 19.3072 8.01149C19.1021 8.09644 18.8765 8.11866 18.6588 8.07536C18.4411 8.03205 18.2411 7.92517 18.0841 7.76821C17.9272 7.61126 17.8203 7.41128 17.777 7.19358C17.7337 6.97587 17.7559 6.75022 17.8408 6.54515C17.9258 6.34007 18.0696 6.16479 18.2542 6.04148C18.4388 5.91816 18.6557 5.85233 18.8777 5.85233C19.1753 5.85266 19.4605 5.971 19.6709 6.18141C19.8813 6.39181 19.9997 6.67708 20 6.97463ZM4 6.97463C4 6.75266 4.06582 6.53568 4.18914 6.35112C4.31246 6.16656 4.48774 6.02271 4.69281 5.93776C4.89788 5.85282 5.12354 5.8306 5.34124 5.8739C5.55895 5.9172 5.75892 6.02409 5.91588 6.18105C6.07283 6.338 6.17972 6.53798 6.22302 6.75568C6.26633 6.97338 6.2441 7.19904 6.15916 7.40411C6.07422 7.60918 5.93037 7.78446 5.74581 7.90778C5.56125 8.0311 5.34426 8.09692 5.12229 8.09692C4.82474 8.0966 4.53947 7.97825 4.32907 7.76785C4.11867 7.55745 4.00032 7.27218 4 6.97463Z" fill="black"/>
        <path d="M12 7.86743C10.8161 7.86743 9.6589 8.21848 8.67457 8.87618C7.69025 9.53389 6.92307 10.4687 6.47003 11.5624C6.017 12.6561 5.89846 13.8596 6.12942 15.0207C6.36037 16.1818 6.93044 17.2483 7.76754 18.0854C8.60464 18.9225 9.67117 19.4926 10.8323 19.7236C11.9933 19.9545 13.1968 19.836 14.2906 19.383C15.3843 18.9299 16.3191 18.1627 16.9768 17.1784C17.6345 16.1941 17.9856 15.0368 17.9856 13.853C17.9837 12.2661 17.3525 10.7447 16.2304 9.62257C15.1083 8.50045 13.5869 7.86925 12 7.86743ZM12 18.3422C11.2928 18.3437 10.5953 18.1781 9.96431 17.8589C9.33329 17.5397 8.7866 17.0759 8.36879 16.5054C7.95097 15.9349 7.67385 15.2737 7.56 14.5758C7.44615 13.8778 7.49879 13.1629 7.71363 12.4892C7.92847 11.8154 8.29943 11.202 8.7963 10.6988C9.29316 10.1956 9.90187 9.81693 10.5728 9.5936C11.2438 9.37026 11.958 9.3086 12.6573 9.41362C13.3567 9.51865 14.0213 9.78739 14.597 10.198L14.4638 10.3312L12.2192 12.5758C12.1492 12.6452 12.0937 12.7277 12.0557 12.8186C12.0177 12.9094 11.998 13.007 11.9978 13.1055C11.9976 13.204 12.0168 13.3016 12.0544 13.3926C12.092 13.4837 12.1472 13.5664 12.2169 13.6361C12.2866 13.7057 12.3693 13.7609 12.4603 13.7985C12.5514 13.8361 12.649 13.8554 12.7475 13.8552C12.846 13.855 12.9435 13.8353 13.0344 13.7973C13.1253 13.7593 13.2078 13.7038 13.2772 13.6338L15.5217 11.3892L15.655 11.256C16.1338 11.9266 16.4184 12.7163 16.4776 13.5382C16.5368 14.3601 16.3682 15.1824 15.9905 15.9147C15.6127 16.6471 15.0404 17.2611 14.3364 17.6894C13.6324 18.1176 12.824 18.3435 12 18.3422Z" fill="black"/>
    </symbol>
</svg>

